<?xml version="1.0" encoding="UTF-8"?>
<svg id="_Слой_2" data-name="Слой 2" xmlns="http://www.w3.org/2000/svg" viewBox="0 0 57.79 45.45">
  <defs>
    <style>
      .cls-1 {
        fill: #f7a401;
      }

      .cls-2 {
        fill: #ffdd35;
      }

      .cls-3 {
        fill: #ffc901;
      }
    </style>
  </defs>
  <g id="_Слой_1-2" data-name="Слой 1">
    <g>
      <g>
        <path class="cls-2" d="M56.85,21.35L2.01.1C.8-.37-.38.85.12,2.05l8.42,20.11c.15.36.15.78,0,1.14L.12,43.4c-.5,1.2.68,2.42,1.9,1.95l54.83-21.25c1.26-.49,1.26-2.27,0-2.75Z"/>
        <path class="cls-3" d="M8.54,23.3L.12,43.4c-.5,1.2.68,2.42,1.9,1.95l54.83-21.25c.63-.24.94-.81.94-1.38H8.65c0,.19-.04.39-.11.57Z"/>
      </g>
      <path class="cls-1" d="M19.61,22.73L.12.91H.12c-.15.34-.17.74,0,1.14l8.18,19.54c.3.73.3,1.54,0,2.27L.12,43.4c-.17.4-.15.8,0,1.14H.12l19.51-21.82h-.02Z"/>
    </g>
  </g>
</svg>