<?xml version="1.0" encoding="UTF-8"?>
<svg id="_Слой_1" data-name="Слой 1" xmlns="http://www.w3.org/2000/svg" viewBox="0 0 96 96">
  <defs>
    <style>
      .cls-1 {
        opacity: .15;
      }
    </style>
  </defs>
  <path class="cls-1" d="M79.86,43.46h-8.86c-1.83-9.3-9.17-16.64-18.47-18.47v-8.86h-9.07v8.86c-9.3,1.83-16.64,9.17-18.47,18.47h-8.86v9.07h8.86c1.83,9.3,9.17,16.64,18.47,18.47v8.86h9.07v-8.86c9.3-1.83,16.64-9.17,18.47-18.47h8.86v-9.07ZM48,62.38c-7.93,0-14.38-6.45-14.38-14.38s6.45-14.38,14.38-14.38,14.38,6.45,14.38,14.38-6.45,14.38-14.38,14.38Z"/>
  <path d="M45.01,62.07c-6.6-1.39-11.39-7.31-11.39-14.07,0-2.9.9-5.7,2.5-8.06l3.64,4.71,8.24-20.08-21.51,2.91,3.9,5.05c-3.74,4.26-5.84,9.75-5.84,15.47,0,11.02,7.82,20.67,18.59,22.94.18.04.32.26.32.49v8.43h9.07v-8.43c0-4.51-3.16-8.45-7.52-9.37Z"/>
</svg>