<?xml version="1.0" encoding="UTF-8"?>
<svg id="_Слой_1" data-name="Слой 1" xmlns="http://www.w3.org/2000/svg" viewBox="0 0 96 96">
  <path d="M77.49,47.39l-45.4-25.94c-.91-.52-2.08-.21-2.6.7,0,0,0,0,0,0l-5.71,10.09c-.46.81-.27,1.84.46,2.43l-3.18,5.61c-.25.44-.32.96-.19,1.45.13.49.46.9.9,1.15l18.59,10.61-5.29,6.72h-6.31v-9.71c0-1.05-.85-1.9-1.9-1.9h-7.46c-1.05,0-1.9.85-1.9,1.9v22.41c0,1.05.85,1.9,1.9,1.9h7.46c1.05,0,1.9-.85,1.9-1.9v-8.89h7.23c.59,0,1.14-.26,1.5-.72l6.2-7.9,16.28,9.31c.29.16.62.25.95.25.17,0,.34-.02.5-.07.49-.13.9-.46,1.15-.9l.7-1.23,3.39,1.9c.29.16.62.25.95.25.17,0,.34-.02.5-.07.49-.13.9-.46,1.15-.9l5.35-9.29c.25-.44.32-.96.18-1.45-.12-.43-.39-.8-.75-1.05l3.21-1.31c.98-.37,1.48-1.47,1.11-2.45-.16-.44-.48-.8-.89-1.01ZM60.2,60.45l-34.9-19.94,2.23-3.93,34.38,19.65c.16.09.33.15.51.19l-2.23,4.04ZM66.86,60.45l-1.75-1.02,1.39-2.43,1.47-2.4,1.65-.67.78.45-3.53,6.07Z"/>
</svg>