<?xml version="1.0" encoding="UTF-8"?>
<svg id="_Слой_1" data-name="Слой 1" xmlns="http://www.w3.org/2000/svg" viewBox="0 0 96 96">
  <path d="M77.87,54.51c-1.33-2.07-2.66-4.07-3.99-6.14-.3-.44-.3-.74,0-1.18,1.33-2,2.59-3.99,3.92-5.99,1.55-2.37.74-4.66-1.92-5.62-2.22-.81-4.44-1.7-6.65-2.51-.44-.15-.67-.44-.67-.96-.07-2.44-.22-4.88-.37-7.25-.15-2.59-2.14-4.07-4.66-3.4-2.37.59-4.73,1.26-7.02,1.92-.52.15-.81,0-1.18-.37-1.48-1.92-3.03-3.77-4.51-5.62-1.63-2.07-4.14-2.07-5.84,0-1.48,1.85-3.03,3.7-4.44,5.55-.37.52-.74.59-1.33.44-2.29-.67-4.58-1.26-6.21-1.7-3.18-.74-5.1.52-5.25,3.18-.15,2.44-.3,4.88-.37,7.39,0,.52-.22.74-.66.96l-6.88,2.66c-2.37.96-3.11,3.25-1.7,5.4,1.33,2.07,2.66,4.07,3.99,6.14.3.44.3.74,0,1.26-1.4,2.07-2.75,4.16-4.07,6.28-1.26,2-.44,4.36,1.77,5.25,2.29.89,4.66,1.77,6.95,2.66.52.15.67.44.67.96.07,2.37.37,4.66.37,7.02s2.07,4.51,4.95,3.62c2.29-.74,4.58-1.26,6.88-1.92.44-.15.74-.07,1.04.37,1.55,1.92,3.03,3.77,4.58,5.69,1.7,2.07,4.14,2.07,5.77,0,1.55-1.92,3.03-3.77,4.58-5.69.3-.37.52-.52,1.04-.37,2.37.67,4.73,1.26,7.1,1.92,2.44.67,4.51-.81,4.58-3.33.15-2.44.3-4.88.37-7.39,0-.59.3-.81.74-.96,2.26-.83,4.5-1.69,6.73-2.59,2.37-1.18,3.11-3.55,1.7-5.69h0ZM60.2,42.38l-14.79,14.79c-.37.37-.89.66-1.41.74-.15,0-.37.07-.52.07-.67,0-1.41-.3-1.92-.81l-6.06-6.06c-1.04-1.04-1.04-2.73,0-3.77,1.04-1.04,2.73-1.04,3.77,0l4.14,4.14,12.87-12.87c1.04-1.04,2.73-1.04,3.77,0,1.18,1.04,1.18,2.74.15,3.77h0Z"/>
</svg>