<?xml version="1.0" encoding="UTF-8"?>
<svg id="_Слой_1" data-name="Слой 1" xmlns="http://www.w3.org/2000/svg" viewBox="0 0 96 96">
  <path d="M42.72,38.62c3.41-1.23,7.14-1.23,10.54,0l12.39,4.49v-6c0-3.65-2.96-6.62-6.62-6.62h-22.06c-3.65,0-6.62,2.96-6.62,6.62v6l12.36-4.49Z"/>
  <path d="M26.01,67.46c.25.15.53.24.82.25.39,0,.76-.13,1.06-.38,5.52-4.6,13.54-4.6,19.06,0,.61.51,1.5.51,2.12,0,5.52-4.6,13.54-4.6,19.06,0,.3.25.67.39,1.06.38.29-.01.57-.1.82-.25l3.15-10.25c1.03-3.37-.76-6.96-4.07-8.16l-17.3-6.29c-2.44-.88-5.11-.88-7.54,0l-17.29,6.28c-3.32,1.2-5.12,4.8-4.08,8.17l3.15,10.24ZM50.21,19.47h-4.41c-3.65,0-6.62,2.96-6.62,6.62h17.65c0-3.65-2.96-6.62-6.62-6.62Z"/>
  <path d="M26.82,76.53c-2.45,0-4.82-.86-6.71-2.43-.94-.78-1.06-2.17-.28-3.11.78-.94,2.17-1.06,3.11-.28h0c2.25,1.88,5.52,1.88,7.76,0,3.89-3.23,9.53-3.23,13.41,0,2.25,1.88,5.52,1.88,7.76,0,3.89-3.23,9.53-3.23,13.41,0,2.25,1.88,5.52,1.88,7.76,0,.94-.78,2.33-.65,3.11.28s.65,2.33-.28,3.11c-3.89,3.23-9.53,3.23-13.41,0-2.25-1.88-5.52-1.88-7.76,0-3.89,3.23-9.53,3.23-13.41,0-2.25-1.88-5.52-1.88-7.76,0-1.88,1.57-4.26,2.43-6.71,2.43Z"/>
</svg>